<svg version="1" xmlns="http://www.w3.org/2000/svg" width="681.333" height="681.333" viewBox="0 0 511.000000 511.000000"><path d="M.2 160.1c.2.7 4.2 2.1 8.9 3.1 12.4 2.7 15.5 3.2 14.7 2.3-.6-.7-3.9-1.6-16.3-4.6-2.2-.5-4.8-1.2-5.9-1.5-1.2-.4-1.7-.2-1.4.7zM26.5 167c1.1.5 2.7.9 3.5.9 1.3.1 1.3 0 0-.9-.8-.5-2.4-.9-3.5-.9h-2l2 .9zM32.8 168.7c.7.3 1.6.2 1.9-.1.4-.3-.2-.6-1.3-.5-1.1 0-1.4.3-.6.6zM0 175.9v3.9l7.8 1.7c43.1 9.3 87.1 26.6 122.5 48.2 5.1 3 10.4 6.3 11.9 7.2 3.4 2 3.4 2.8.3 6.4-1.7 1.9-3.1 2.6-4.3 2.3-1.3-.5-2.2.1-3 1.8-.6 1.5-2.6 2.9-4.9 3.6-9.8 3.2-19.1 10.7-17.7 14.4.5 1.3.9 1.3 2.3-.6 1.7-2.1 1.8-2.1 4.9-.3 2 1.2 2.7 2.2 2 2.6-.6.4 1.1 1 3.8 1.4 6.9.9 7.3 1.1 8 4.1 1.1 4.2-1.6 5.6-10.2 5.2-5.9-.3-7.8-.8-11.4-3.3-2.4-1.6-4.9-4.4-5.6-6.2-.8-1.7-1.8-3.5-2.4-3.8-1.9-1.2-4 1.7-4 5.4 0 2.8-.7 4.4-2.9 6.5-3.3 3.2-5.6 3-7-.6-.6-1.6-.4-2.8.5-3.9 2.4-2.6 1.6-3.1-4.1-2.4-4 .5-6 .4-7.1-.6-1.4-1.1-1.8-1-3 .6-.8 1-1.4 2.9-1.4 4.2 0 1.3-1.1 2.9-2.6 4-2.5 1.6-2.7 1.6-4-.2-2.2-3-1.7-5.1 3.6-16.6 2.8-5.9 5-11.5 5-12.3 0-.9 1.6-2.2 3.5-3 1.9-.8 4-2.6 4.6-4 1-2.1 1.6-2.4 4.3-1.9 3.9.8 5.5 2.8 5.7 7.3 0 1.9.5 4.6.9 6 .8 2.4.8 2.4.9.2.1-1.9.3-2.1 2-1 1.5.9 1.8 1.9 1.4 4-.4 2-.1 2.9 1.1 3.4 1.8.7 2.2.2 7.5-7.2 2-2.8 5.5-5.6 10.5-8.5 4.2-2.4 7.6-4.6 7.6-4.9 0-1.2-27-15.7-40.5-21.8-24.4-11.1-52.8-20.6-77.7-26.1L0 189.2v8.5l13.8 3.3c19 4.5 32.7 9 53.2 17.1 17.7 7.1 49.1 22.5 49.7 24.5.2.6-1.4 1.9-3.6 2.9l-4 1.8-18.3-9.1c-26-12.8-50.7-21.9-79.5-29.1C0 206.2 0 206.2 0 211.3v4.3l13.2 3.3c7.2 1.9 17.7 4.9 23.2 6.8 5.6 1.9 11.7 3.9 13.6 4.4 1.9.6 4.9 1.6 6.5 2.4 1.7.8 7.4 3.3 12.8 5.6 5.3 2.2 9.7 4.5 9.7 5s-1.7 1.6-3.7 2.5c-3.4 1.4-4.3 1.4-7.8.1-3.3-1.2-4-1.8-3.7-3.8.1-1.3-.4-3.3-1.3-4.4-1.6-1.9-1.6-1.9-.5.3 1.6 3.2.6 6.5-3.2 10.8l-3.2 3.6 3.2 2.9c3.4 3.2 4.4 2.9 1.5-.4-1.7-2-1.7-2 .2-1.3 1.1.5 2.8 1.1 3.8 1.3 1.9.6 2.2 2 .7 4.3-.8 1.2-1 1.2-1 .1 0-.8-.2-1.2-.4-1-.3.3-.1 2.2.4 4.3 1.1 4.8-.5 7.5-6.3 10.9-7 4-13.5 5.7-21.2 5.4l-7-.3-1.2-3.6c-1-3.1-.8-4.6 1.8-12.7 1.6-5 2.9-10.6 2.9-12.5 0-3.5-1.3-5.5-2.5-3.6-1.6 2.6-4.9.6-7-4.2-1.4-3.5-1.4-3.8.6-5.7 1.2-1.1 3.5-2.3 5-2.6 3.2-.7 3.9-2 1.2-2.1-1-.1-7-1.5-13.3-3.2-18.9-5-17-5.1-17 .8 0 4.6.2 5 2.8 5.6 11 2.4 11.7 2.8 11.4 5.9-.2 1.7-.5 3.1-.7 3.3-.1.2-3-.4-6.3-1.2-3.3-.9-6.3-1.6-6.6-1.6-.3 0-.6 60.7-.6 135v135h121.5c78 0 121.5-.3 121.5-1 0-.5-1.4-6.2-3.1-12.7-4.5-17.2-12-39.1-18.3-53.1-5.6-12.5-22-43.9-26.2-50.1l-2.3-3.4 2.2-1.7c2-1.7 2.2-1.6 4.8 2 5.7 7.8 17.3 27.9 23.5 40.5 10.9 22.5 20 47.6 25.9 72.2l1.7 7.3h4.4c5.4 0 5.4.3 1.3-15.5-8-31.9-21.6-65-37.8-92.5l-5-8.4 3.2-1.4c1.7-.7 3.6-1.1 4.3-.8 2.7 1 19.3 32.9 27.4 52.8 6.3 15.3 14 38.9 17.5 54l2.8 11.8h4.3c2.4 0 4.4-.4 4.4-.8 0-2.2-7.4-30.4-10.6-40.3-8.1-25.3-20.3-53-33.1-74.6l-5.4-9.2 2.3-4.6 2.4-4.6 7.2 12.3c21.7 37.2 37.2 77.5 45.7 119.1.5 2.4 1 2.7 4.6 2.7h4.1l-.7-4.8c-1.1-7.3-6.9-29.4-11.5-43.7-6.1-18.9-13.1-35.8-22.1-53.9l-7.9-15.9 3.7.7c2.1.3 4.6.6 5.5.6 3.5 0 20.1 36.7 29.1 64.7 4.6 14 11 38.3 13.3 50.1.4 1.8 1.1 2.2 4.5 2.2s4-.3 3.5-1.8c-.3-.9-.8-3.5-1.2-5.7-1-6.3-6.2-27-9.4-37.5-6.3-21.2-13.6-40-23.5-60.6-5.3-11-6.4-14.2-6-16.8.7-3.4-1-5.7-5-7-1.9-.6-9.5-12.2-9.5-14.5 0-1.1 5.3-5.1 6.8-5.1 1.6 0 12.2 19.3 12.2 22.2 0 4.3 2 8.7 4.2 9 2.4.4 4.5 4 11.8 20.3 8.5 19.3 8.2 16.3-.7-5.5-5.7-14-5.8-14.4-4.7-19.7.6-3.2.7-3.2 3.5-1.8l2.8 1.5v-18.6l-.1-18.6-3.7 3.5c-2 1.9-4.5 3.7-5.6 3.9-1.3.2-2.4 1.8-3.5 5.3-.8 2.8-2.1 6.1-2.9 7.4-1.3 2.4-1.4 2.4-4.6-3.3-3.2-5.7-3.2-5.9-1.4-7.7 4.4-4.4 2.7-10.6-3.6-12.9-1.6-.7-3.8-1.6-4.8-2.1-.9-.5-1.7-.6-1.6-.2.5 2.9-.6 2.1-3.6-2.7-3.7-5.8-4.3-7.6-2.2-6.4.8.5.8.2-.2-.9-1.6-2-2.6-2.3-1.5-.5.5.9.2.8-.9-.1-1-.7-1.6-1.9-1.5-2.5.1-.6-1.2-2.6-3-4.5-1.8-1.8-3.2-3.9-3.2-4.7 0-.7-.9-1.8-2-2.4-1.1-.6-1.9-1.4-1.7-1.9.2-.7-3.5-5.3-12.3-15.6-1.9-2.2-7.1-7.7-11.5-12.3-9.5-9.9-10.1-10.8-8.3-12.9 1-1.3.8-1.3-1.5.2-3.1 2-4.1 1.4-5.1-2.6-.4-1.8.4-4.6 2.6-9 1.7-3.5 4.1-8.6 5.5-11.3 1.3-2.6 2.2-5.5 2.1-6.4-.2-.9.8-1.8 2.5-2.3 3.7-1 5.7-2.7 5.7-4.9 0-1.7-.2-1.7-2.9-.4-1.6.8-3.4 2.1-4.1 2.9-1.6 1.9-3 1.9-3 .1 0-.8-.4-1.7-.9-2.1-.6-.3-.6.6-.1 2.5.5 1.7.5 2.8.1 2.5-2.1-1.2-13.1 14.1-20 27.8-2.7 5.4-4.4 6.6-6.6 4.7-2.3-1.9-1.8-5.4 1.5-12l3-5.9-2.1-3.5c-1.9-3.3-3.9-11.1-4.2-16.9-.1-1.7-.8-2.7-1.7-2.7-3.1 0-4.2 1.7-4.2 6.4 0 5 .9 4.1-11.5 13-4.8 3.5-5.2 4.6-2.2 6.4 1.9 1.2 2 1.1 1.5-.5-.4-1.3.2-2.4 2.3-3.6 4-2.3 4.5-2.2 9 1.8 3.4 3.1 3.9 4.1 3.6 7.2-.4 5-3.5 7.6-8.4 6.7-4.2-.8-8.8-2.9-11.6-5.4-4.3-3.8-5.9-3.4-10.1 2.5-3.6 5.1-6.8 7.5-8.1 6.1-.3-.3-.9-2.3-1.3-4.6-.8-4.2.5-11.3 3.3-18.5.9-2.2 2.3-6.5 3.2-9.5 2.3-8.1 2.6-8.5 6.4-6.6 3.8 2 4.9 5.5 2.5 9-2.4 3.8-1.2 4.1 3.6.9 2.4-1.5 5.3-3.5 6.6-4.4 3.7-2.4 4.1-3.3 1.5-2.6-2 .5-5.4-1.3-16.5-8.7-40.2-26.7-81.7-45-127.6-56.5-8.5-2.1-17.2-4.2-19.2-4.5l-3.8-.7v4zm135.7 78.3c1.3 1.6-1.1 7.8-3 7.8-2-.1-6.4-4.1-5-4.7.7-.2 2.3-1.3 3.5-2.3 2.7-2.3 3.3-2.4 4.5-.8zm64.8 10.9c-2.2 4.3-2.2 4.2-3.5 3.4-.7-.4-.3-1.9 1.2-4.6 2.7-4.8 4.8-3.7 2.3 1.2zm-39.6 14.8c1.9.6 5.1 1.1 7.2 1.1 3 0 4.8.9 8.6 4.1 13.4 11.5 33.8 32.7 46.2 47.9 8.9 10.9 9.3 11.5 7 12.1-6.5 1.9-8.1 1.1-13.8-6.1-13.6-17.6-34.1-38.3-54.8-55.4-9.1-7.5-13.7-12.3-7.2-7.4 1.9 1.4 4.9 3 6.8 3.7zm37.3 1.3c9.4 8.3 24.8 24.3 34.6 35.9 9.6 11.5 24.2 31.1 24.2 32.6 0 1.1-5.3 4.3-7.2 4.3-.7 0-1.9-1-2.7-2.3-7.5-12.2-33.4-42.9-49.5-58.6-5.3-5.1-9.6-9.6-9.6-9.8 0-1 3.2-7.3 3.7-7.3.3 0 3.2 2.4 6.5 5.2zm-93.4-.7c2 1.4 6.2 3 9.4 3.6 4.9 1 7.6 2.5 19 11.2 17.1 12.8 25.3 20 41.2 36.1l12.8 13.1-5 .3-5 .3-11.9-11.8c-17.6-17.7-37.2-33.5-57.5-46.7-8.5-5.6-9.5-6.5-8.1-7.9.9-1 1-1 5.1 1.8zm37.1 3.5c3.4-1.1 4.3-1.1 5.8.1 18.4 14.1 40.2 34.9 56.1 53.4l9.4 10.9-4.1 2c-2.2 1.1-4.2 1.8-4.3 1.5-.2-.2-2.8-3.3-5.8-6.9-17.1-20.4-35.4-38.1-56-54.1-5.8-4.5-10.7-8.6-10.9-9.1-.2-.6 1 0 2.7 1.2 2.9 2.2 3.4 2.2 7.1 1zm19.2 59.5c1.5 1.6 2.6 3.2 2.3 3.4-.3.3-3.4-2.6-7.1-6.4-12.2-13-13.8-15-5.8-7.5 4.3 4.1 9.1 8.8 10.6 10.5zm80.9 16.2c0 .5-1.2 2.1-2.6 3.7l-2.6 2.9-2.4-2.9c-1.3-1.6-2.3-3.2-2.4-3.7 0-.4 2.3-.7 5-.7 2.8 0 5 .3 5 .7zm-37.7 9.6c2.1 1 5.1 3.8 6.7 6.2 3.3 4.8 3.6 4.2-3 6.1-1.5.4-3.1-1.1-7.9-7.7l-6-8.1 2.2-3 2.2-3 1.1 3.9c.8 2.9 1.9 4.2 4.7 5.6zm49.1 6.7c1.4 2.2 2.6 4.1 2.6 4.4 0 .7-7.2-1.2-8.2-2.2-1-1 .7-6.2 2-6.2.5 0 2.1 1.8 3.6 4zm-66.4 0c0 1.2-.8 1.2-3.5 0-1.8-.8-1.7-.9.8-.9 1.5-.1 2.7.3 2.7.9z"/><path d="M40 230.1c0 .5.5.7 1 .4.6-.3 1-.8 1-1.1 0-.2-.4-.4-1-.4-.5 0-1 .5-1 1.1zM358 230.7c-1.4.2-7.4 1.8-13.3 3.5-14.3 4.1-17.1 7.3-12.7 14.5l1.9 3.3-2.2 1.1c-6.5 3.4-8.4 8.4-5.2 13.9.8 1.4 1.4 4.1 1.5 6.1 0 8.4 7.9 12 11.9 5.5 1.2-1.8 2.1-4.5 2.1-5.8 0-3.5 1.6-4.5 8.7-5.3 4.6-.5 7.4-1.5 10.2-3.6 4.5-3.2 6.7-6.4 5.1-7.4-.5-.3-1 .2-1 1.2-.1 1.7-.1 1.7-1.1.1-.5-1-.9-2.6-.7-3.5.3-1.6-.5-1.8-6.4-1.5-6 .2-6.8 0-6.8-1.6 0-1 .6-2.5 1.3-3.4 1.4-1.9 17.5-5.5 20-4.5 1.8.7 1.3 3.2-2.1 10.7-1.1 2.5-2.8 7.7-3.7 11.5-1.5 6.4-1.5 7.3 0 11.2 1.9 4.9 4 5.9 10.7 4.9 2.4-.3 7.7-.9 11.8-1.2 8.3-.7 13-3.1 13.1-6.7 0-1.2.7-.1 1.5 2.6 1.8 5.7 3.5 6.6 8.1 4.2 3.8-2.1 5.7-4.8 5-7.3-.3-1.1-.5-.9-.7.8-.1 2.3-.2 2.3-1 .5-1.6-3.6-1-12 1.2-18.5 1.7-5.2 1.9-7.1 1.1-10.2-.7-2.6-.7-3.9.1-4.1.8-.3.7-.8-.1-1.8-2.2-2.3-6.3.1-9 5.2-2.4 4.7-3.9 10.8-5 20.7-.3 2.9-.8 5.1-1.2 4.9-7.7-4.2-10.5-4.9-16.3-4l-6 1 .6-3.1c.4-2.2.3-2.7-.4-1.6-.5.8-1 2.3-1 3.2 0 1-.4 1.8-1 1.8-1.6 0-1.3-1.2 3-12.2 2.3-5.7 3.9-11.3 3.7-12.6-.4-1.9-.2-2 1.2-1 1.3 1 1.4 1 .4-.2-.7-.8-3.6-2.4-6.5-3.6-2.9-1.2-5.9-3.3-6.7-4.6l-1.5-2.3 2.5 2c1.9 1.5 1.8 1.4-.3-.8-2.3-2.2-3.6-2.7-7.6-2.6-2.6.1-5.8.4-7.2.6zm-8.3 18c-1.3 4.5-2.7 6.6-2.7 4.1 0-1.9 3-9.2 3.5-8.6.2.2-.1 2.2-.8 4.5zm-7.2 18.3c-.3.5-1 2.9-1.4 5.2-.8 4.1-.9 4.1-1 1-.1-3.1 1.3-7.2 2.5-7.2.3 0 .2.4-.1 1zm57.5 6.3c0 1.8-.2 1.9-1 .7-1.3-2-1.3-4.3 0-3.5.6.3 1 1.6 1 2.8zM199.5 241c-1.7 1.6-4.3 3.1-5.8 3.2-2.8.2-3.4 2.2-1.8 6.2.7 1.7.8 1.8 1.4.3.3-.9 1.2-1.4 1.9-1.2.7.3 2.2-.9 3.3-2.7 1.1-1.8 2.8-4.5 3.7-6 2.3-3.7 1-3.6-2.7.2zM253.9 241.6c-1.8 2-4.3 4-5.4 4.5-6 2.9-7 4-8.2 8.6-.7 2.6-1 5.5-.8 6.4.3.9-.4 2.4-1.5 3.4-1.3 1.2-2 3.1-2 5.6 0 2.9-.6 4.3-3 6.3-1.7 1.4-3.7 2.3-4.5 2-1.8-.7-2-5.5-.3-7.2 2.3-2.3-.6-3.6-4.6-2.1-2.9 1-4.3 1.1-6.8.1-3.6-1.3-4.4-.9-5.3 3-.7 2.6-.5 2.8 2.4 2.8 2.6 0 3.6.7 5.2 3.5 1.9 3.2 6.7 6.5 9.4 6.5 1.6 0 5.7-4.5 4.9-5.3-.4-.4-.1-1.3.6-2.2 1.1-1.4 1.5-1.2 3.2 1.5 2.4 4 4.3 4.6 8.3 2.7 3.2-1.5 3.7-1.5 8.2.5 3.4 1.5 6.4 2 10.8 1.8 3.3-.1 8.1-.3 10.6-.4 2.6 0 5.5-.8 6.5-1.7 2.5-2 7-3.9 9.4-3.9 2.2 0 15-12.8 15-15-.1-1.1-.4-.9-1.2.5-1.2 2.2-3.1 3.9-6.3 5.7-1.3.7-.8-.2 1.2-2.6 4.2-4.6 5-7.9 2.9-11.1-2.7-4.1-5.8-6.5-13.3-10-3.9-1.9-7.5-4-7.9-4.6-.5-.9-.2-1 1-.6.9.4 1.5.3 1.2-.2-.3-.5-1.5-1.1-2.6-1.4-2.7-.7-6.8 4.3-7.6 9.5-.7 4-.7 4-2.1 1.7-1-1.7-1.2-1.8-.7-.4 2.5 7.3 1 10.2-7.1 13.5-3.1 1.2-5.4 2.8-5.2 3.4.2.6 3 1.9 6.3 2.9 8 2.4 8.9 3 9.2 6.1.4 3.4-2.4 4.7-4.3 1.9-.9-1.2-3.1-2.3-5.6-2.7-2.4-.4-5.8-1.4-7.6-2.3-4.1-1.9-6.1-1.2-7.4 2.7-1.5 4.3-4.6 4-5.5-.4-.3-1.9-.3-4 .2-4.7.4-.7 1.4-5.1 2.3-9.8 1.3-7 2-8.8 3.9-9.7 3.9-1.9 8.2-6.3 8.2-8.4 0-1 .8-2.4 1.8-2.9 1.5-1 1.5-1-.4-1.1-1.1 0-3.6 1.6-5.5 3.6zm31.6 11.3c.3 1.1 1.4 2.3 2.4 2.6 1 .3 2.8 1.6 4 2.9l2.3 2.4-3 1.6c-1.7.9-3.8 1.6-4.7 1.6-.9 0-1.5.9-1.5 2.1 0 1.2-.5 1.9-1.2 1.6-.7-.2-1.3-1.1-1.2-2 0-1 .1-4.6.2-8.2.2-6.3 1.4-8.5 2.7-4.6zm-11.5 7.5c0 7.7-2.5 10.5-7.6 8.6-2.3-.9-2.4-1-.7-2.9 1-1 2.9-3.5 4.3-5.4 2.7-3.8 4-3.9 4-.3z"/><path d="M286.1 257.6c0 1.1.3 1.4.6.6.3-.7.2-1.6-.1-1.9-.3-.4-.6.2-.5 1.3zM439.9 238.9c-5.8.8-7 1.8-12.3 10-5.7 9-7 12.4-6.2 17 .3 2.1.1 5.3-.5 7-1.7 4.8.4 9.1 4.4 9.1 3.1 0 8.7-4.7 8.7-7.2 0-.9-.3-.8-1 .2-.8 1.2-1 1-.9-1 .1-1.4.5-3.6.9-5 .7-2.3.8-2.3 1 1 .2 3 .3 3.1.9 1.2.5-1.9 2.2-2.9 8.1-4.9 4.1-1.4 8.6-3.4 10-4.3 2.1-1.5 3.4-1.6 8.4-.9 6.1 1 9.6 2.4 9.6 3.8 0 1.3-6.4 4.1-9.3 4.1-5 0-8 9.7-3.6 12 2.6 1.4 7.1.5 13.2-2.8 5-2.7 11.7-9.3 11.7-11.5-.1-.6-.7-.1-1.5 1.3-1.4 2.4-1.4 2.3-.8-2.2.5-4.2.2-5.1-2.5-8.5-3.9-5-3.1-6.5 3.4-6.3 6.3.2 6.6.2 8.7-1.4 1.7-1.3 1.7-1.6.2-4.5-.9-1.8-1.3-3.7-.9-4.3.4-.7.3-.8-.4-.4s-1.2.2-1.2-.3c0-2.9-15.9-.5-26.5 4-4.5 1.9-7.3 2-7.9.2-.3-.8-.4-1.9 0-2.4 1.2-2-7.3-3.8-13.7-3zm-3.2 14.3c-.3.8-.6.5-.6-.6-.1-1.1.2-1.7.5-1.3.3.3.4 1.2.1 1.9zM46.5 240.1c-1.6.4-4.2 1-5.7 1.3-3.5.8-3.6 2.3-.4 3.8 2.1.9 3.2.6 7-1.6 2.5-1.5 4.6-2.8 4.6-3 0-1-2.8-1.2-5.5-.5zM189.6 241.3c.3 1 .9 1.5 1.2 1.2.3-.3 0-1.1-.7-1.8-1-.9-1.1-.8-.5.6zM268 245c.6 1.1 1.3 2 1.6 2 .2 0 0-.9-.6-2s-1.3-2-1.6-2c-.2 0 0 .9.6 2zM231.2 247c0 1.4.2 1.9.5 1.2.2-.6.2-1.8 0-2.5-.3-.6-.5-.1-.5 1.3zM418.1 246.6c0 1.1.3 1.4.6.6.3-.7.2-1.6-.1-1.9-.3-.4-.6.2-.5 1.3zM384.1 249.1c-.6 1.8-.9 3.4-.7 3.6.2.2.9-1 1.5-2.8.6-1.8.9-3.4.7-3.6-.2-.2-.9 1-1.5 2.8zM257.1 251.9c-1.7 2.1-3.1 4.1-3.1 4.4 0 1 8.5 1.5 10.2.6 2.3-1.3 2.3-5.1 0-7.2-2.7-2.5-3.7-2.1-7.1 2.2z"/><path d="M476 253.4c0 .2.7.7 1.6 1 .8.3 1.2.2.9-.4-.6-1-2.5-1.4-2.5-.6zM83.1 257.3l-2 3.2 2.5.3c1.4.2 3.2.1 4-.2 2-.8 1.7-4.4-.5-5.6-1.6-.8-2.3-.4-4 2.3zM219.5 257c-2 3.9-2 4 1.9 4 4.1 0 4.9-.9 4-4.5-.9-3.5-4-3.2-5.9.5zM381.6 255.5c-.9 2.6-.7 3.2.5 1.2.6-1 .9-2.1.6-2.3-.2-.3-.7.2-1.1 1.1zM43.1 258.9c-2.2.6-4.8 5.1-5 8.8-.1 1.5 5.7-.1 12.2-3.4 6.3-3.2 6.2-5.7-.3-6-2.5-.1-5.6.2-6.9.6zM415.2 263c0 1.9.2 2.7.5 1.7.2-.9.2-2.5 0-3.5-.3-.9-.5-.1-.5 1.8zM299 427.5c0 .5.5 1.7 1 2.5s1 1 1 .5c0-.6-.5-1.7-1-2.5s-1-1.1-1-.5zM311.1 462.6c0 1.1.3 1.4.6.6.3-.7.2-1.6-.1-1.9-.3-.4-.6.2-.5 1.3zM315.1 476.6c0 1.1.3 1.4.6.6.3-.7.2-1.6-.1-1.9-.3-.4-.6.2-.5 1.3zM319.1 492.6c0 1.1.3 1.4.6.6.3-.7.2-1.6-.1-1.9-.3-.4-.6.2-.5 1.3zM320.2 498c0 1.4.2 1.9.5 1.2.2-.6.2-1.8 0-2.5-.3-.6-.5-.1-.5 1.3zM322.2 508c0 1.4.2 1.9.5 1.2.2-.6.2-1.8 0-2.5-.3-.6-.5-.1-.5 1.3z"/></svg>